<svg height="510pt" viewBox="0 -72 510.03545 510" width="510pt" xmlns="http://www.w3.org/2000/svg"><path d="m275.914062 191.121094-25.929687-19.5625c55.785156-73.9375 144.417969-118.085938 237.09375-118.085938v32.472656c-82.527344 0-161.484375 39.308594-211.164063 105.175782zm0 0" fill="#fbc02d"/><path d="m89.296875 313.25h-24.351563v-32.472656h24.351563c46.03125 0 90.257813-19.449219 121.332031-53.351563l23.949219 21.953125c-37.230469 40.589844-90.175781 63.871094-145.28125 63.871094zm0 0" fill="#fbc02d"/><path d="m422.132812 134.652344c-6.332031-6.332032-6.332031-16.625 0-22.957032l41.988282-41.984374-41.988282-41.988282c-6.332031-6.332031-6.332031-16.625 0-22.957031 6.332032-6.332031 16.625-6.332031 22.957032 0l64.945312 64.945313-64.945312 64.941406c-6.332032 6.332031-16.625 6.332031-22.957032 0zm0 0" fill="#fdd835"/><path d="m487.078125 313.25c-104.707031 0-202.753906-56.03125-255.910156-146.222656l-20.621094-34.988282c-16.753906-28.429687-47.652344-46.09375-80.660156-46.09375v-32.472656c44.4375 0 86.066406 23.789063 108.636719 62.070313l20.617187 34.988281c47.34375 80.335938 134.679687 130.246094 227.9375 130.246094zm0 0" fill="#e64a19"/><path d="m0 53.472656h32.472656v32.472656h-32.472656zm0 0" fill="#ff7043"/><path d="m64.945312 53.472656h32.46875v32.472656h-32.46875zm0 0" fill="#ff7043"/><path d="m0 280.777344h32.472656v32.472656h-32.472656zm0 0" fill="#fdd835"/><path d="m422.132812 361.957031c-6.332031-6.332031-6.332031-16.625 0-22.957031l41.988282-41.988281-41.988282-41.984375c-6.332031-6.332032-6.332031-16.625 0-22.957032 6.332032-6.332031 16.625-6.332031 22.957032 0l64.945312 64.941407-64.945312 64.945312c-6.332032 6.332031-16.625 6.332031-22.957032 0zm0 0" fill="#ff7043"/></svg>